<?xml version="1.0" encoding="UTF-8"?>
<svg id="_レイヤー_2" data-name="レイヤー 2" xmlns="http://www.w3.org/2000/svg" xmlns:xlink="http://www.w3.org/1999/xlink" viewBox="0 0 401.89 63.3">
  <defs>
    <style>
      .cls-1 {
        fill: url(#_名称未設定グラデーション_302-3);
      }

      .cls-2 {
        fill: #231815;
      }

      .cls-3 {
        fill: url(#_名称未設定グラデーション_302);
      }

      .cls-4 {
        fill: url(#_名称未設定グラデーション_302-2);
      }

      .cls-5 {
        fill: url(#_名称未設定グラデーション_302-4);
      }
    </style>
    <linearGradient id="_名称未設定グラデーション_302" data-name="名称未設定グラデーション 302" x1="292.86" y1="80.24" x2="538.96" y2="-61.85" gradientTransform="translate(-166.15 28.35)" gradientUnits="userSpaceOnUse">
      <stop offset="0" stop-color="#e4577c"/>
      <stop offset="1" stop-color="#babcbe"/>
    </linearGradient>
    <linearGradient id="_名称未設定グラデーション_302-2" data-name="名称未設定グラデーション 302" x1="190.03" y1="-123.43" x2="254.54" y2="-160.68" gradientTransform="translate(-180.16 166)" xlink:href="#_名称未設定グラデーション_302"/>
    <linearGradient id="_名称未設定グラデーション_302-3" data-name="名称未設定グラデーション 302" x1="190.03" y1="-123.43" x2="254.54" y2="-160.68" gradientTransform="translate(-180.16 166)" xlink:href="#_名称未設定グラデーション_302"/>
    <linearGradient id="_名称未設定グラデーション_302-4" data-name="名称未設定グラデーション 302" x1="190.03" y1="-123.43" x2="254.54" y2="-160.68" gradientTransform="translate(-180.16 166)" xlink:href="#_名称未設定グラデーション_302"/>
  </defs>
  <g id="_レイヤー_1-2" data-name="レイヤー 1">
    <g>
      <g>
        <path class="cls-3" d="M122.42,47.91h-14.46l-2.93,7.23h-9.18l15.44-38.28h8.09l15.09,38.28h-9.18l-2.87-7.23ZM120.01,41.14l-4.71-12.85-4.76,12.85h9.47Z"/>
        <path class="cls-3" d="M152.2,24.32v30.82h-8.84v-30.82h-8.32v-7.46h25.48v7.46h-8.32Z"/>
        <path class="cls-3" d="M178.6,24.32v30.82h-8.84v-30.82h-8.32v-7.46h25.48v7.46h-8.32Z"/>
        <path class="cls-3" d="M214.07,47.91h-14.46l-2.93,7.23h-9.18l15.44-38.28h8.09l15.09,38.28h-9.18l-2.87-7.23ZM211.66,41.14l-4.71-12.85-4.76,12.85h9.47Z"/>
        <path class="cls-3" d="M258.08,53.93c-3.39,1.72-6.14,2.07-8.44,2.07-7.06,0-11.82-2.41-15.04-5.57-3.44-3.33-5.97-8.38-5.97-14.52s2.53-11.08,5.97-14.4c3.39-3.27,8.32-5.51,14.29-5.51,2.52,0,5.45.52,9.18,2.12v10.21c-1.95-2.07-4.88-4.08-8.95-4.08-3.21,0-5.8,1.03-7.8,2.99-2.12,2.07-3.62,5.16-3.62,8.84,0,3.96,1.61,6.77,3.33,8.44.8.8,3.56,3.21,8.27,3.21,2.29,0,5.39-.63,8.78-3.96v10.16Z"/>
        <path class="cls-3" d="M273.98,31.44h15.26v-14.58h8.84v38.28h-8.84v-16.24h-15.26v16.24h-8.84V16.86h8.84v14.58Z"/>
        <path class="cls-3" d="M328.95,47.91h-14.46l-2.93,7.23h-9.18l15.44-38.28h8.09l15.09,38.28h-9.18l-2.87-7.23ZM326.54,41.14l-4.71-12.85-4.76,12.85h9.47Z"/>
        <path class="cls-3" d="M358.74,16.86c4.88,0,7.92,1.61,9.76,3.33,1.61,1.55,3.33,4.3,3.33,8.55,0,2.41-.52,5.39-2.98,7.81-1.32,1.26-3.21,2.41-5.34,2.93l11.76,15.67h-10.79l-10.33-15.09v15.09h-8.84V16.86h13.43ZM354.15,34.25h2.01c1.61,0,3.79-.17,5.28-1.66.63-.63,1.43-1.84,1.43-3.73,0-2.18-1.03-3.33-1.78-3.9-1.43-1.09-3.73-1.2-4.88-1.2h-2.07v10.5Z"/>
        <path class="cls-3" d="M393.57,24.32v30.82h-8.84v-30.82h-8.32v-7.46h25.48v7.46h-8.32Z"/>
      </g>
      <g>
        <g>
          <path class="cls-2" d="M60.01,0h-.32c-4.68.05-9.35,1.72-13.06,5-2.76,2.36-5.64,7.23-9.61,3.85-3.1-3.19-6.81-6.79-11.24-7.95C20.13-.87,13.81,0,8.85,3.29-1.42,9.9-2.85,24.54,5.07,33.44c1.68,1.94,2.17,2.18,5.48,5.58,6.81,6.81,19.15,19.16,20.62,20.62,4.2,4.35,11.3,4.95,16.06,1.12,7.02-6.67,20.85-20.66,27.74-27.69C86.18,20.18,76.73.02,60.01,0ZM68.33,28.49l-6.49,6.49v-14.97h-8v22.97l-4,4v-18.97h-8v26.76c-1.24.72-2.76.72-4,0v-22.76h-8v14.97l-4-4v-18.97h-8v10.97l-6.23-6.23c-4.47-4.47-5.02-11.71-.91-16.51,2.47-2.89,6.03-4.41,9.81-4.21,4.68.19,7.7,3.22,10.85,6.52,4.69,4.69,12.29,4.69,16.97,0,3.32-3.53,6.5-6.66,11.51-6.54,3.21,0,6.22,1.25,8.49,3.51,4.68,4.68,4.68,12.29,0,16.97Z"/>
          <circle class="cls-2" cx="33.84" cy="26" r="4"/>
          <circle class="cls-2" cx="57.84" cy="14" r="4"/>
        </g>
        <g>
          <path class="cls-4" d="M60.01,0h-.32c-4.68.05-9.35,1.72-13.06,5-2.76,2.36-5.64,7.23-9.61,3.85-3.1-3.19-6.81-6.79-11.24-7.95C20.13-.87,13.81,0,8.85,3.29-1.42,9.9-2.85,24.54,5.07,33.44c1.68,1.94,2.17,2.18,5.48,5.58,6.81,6.81,19.15,19.16,20.62,20.62,4.2,4.35,11.3,4.95,16.06,1.12,7.02-6.67,20.85-20.66,27.74-27.69C86.18,20.18,76.73.02,60.01,0ZM68.33,28.49l-6.49,6.49v-14.97h-8v22.97l-4,4v-18.97h-8v26.76c-1.24.72-2.76.72-4,0v-22.76h-8v14.97l-4-4v-18.97h-8v10.97l-6.23-6.23c-4.47-4.47-5.02-11.71-.91-16.51,2.47-2.89,6.03-4.41,9.81-4.21,4.68.19,7.7,3.22,10.85,6.52,4.69,4.69,12.29,4.69,16.97,0,3.32-3.53,6.5-6.66,11.51-6.54,3.21,0,6.22,1.25,8.49,3.51,4.68,4.68,4.68,12.29,0,16.97Z"/>
          <circle class="cls-1" cx="33.84" cy="26" r="4"/>
          <circle class="cls-5" cx="57.84" cy="14" r="4"/>
        </g>
      </g>
    </g>
  </g>
</svg>