<?xml version="1.0" encoding="UTF-8"?>
<svg id="_レイヤー_2" data-name="レイヤー 2" xmlns="http://www.w3.org/2000/svg" xmlns:xlink="http://www.w3.org/1999/xlink" viewBox="0 0 79.85 63.3">
  <defs>
    <style>
      .cls-1 {
        fill: #231815;
      }

      .cls-2 {
        fill: url(#_名称未設定グラデーション_302);
      }
    </style>
    <linearGradient id="_名称未設定グラデーション_302" data-name="名称未設定グラデーション 302" x1="189.87" y1="-216.46" x2="254.39" y2="-253.71" gradientTransform="translate(-180 259.03)" gradientUnits="userSpaceOnUse">
      <stop offset="0" stop-color="#e4577c"/>
      <stop offset="1" stop-color="#babcbe"/>
    </linearGradient>
  </defs>
  <g id="_レイヤー_1-2" data-name="レイヤー 1">
    <g>
      <g>
        <path class="cls-1" d="M60.01,0h-.32c-4.68.05-9.35,1.72-13.06,5-2.76,2.36-5.64,7.23-9.61,3.85-3.1-3.19-6.81-6.79-11.24-7.95C20.13-.87,13.81,0,8.85,3.29-1.42,9.9-2.85,24.54,5.07,33.44c1.68,1.94,2.17,2.18,5.48,5.58,6.81,6.81,19.15,19.16,20.62,20.62,4.2,4.35,11.3,4.95,16.06,1.12,7.02-6.67,20.85-20.66,27.74-27.69C86.18,20.18,76.73.02,60.01,0ZM68.33,28.49l-6.49,6.49v-14.97h-8v22.97l-4,4v-18.97h-8v26.76c-1.24.72-2.76.72-4,0v-22.76h-8v14.97l-4-4v-18.97h-8v10.97l-6.23-6.23c-4.47-4.47-5.02-11.71-.91-16.51,2.47-2.89,6.03-4.41,9.81-4.21,4.68.19,7.7,3.22,10.85,6.52,4.69,4.69,12.29,4.69,16.97,0,3.32-3.53,6.5-6.66,11.51-6.54,3.21,0,6.22,1.25,8.49,3.51,4.68,4.68,4.68,12.29,0,16.97Z"/>
        <circle class="cls-1" cx="33.84" cy="26" r="4"/>
        <circle class="cls-1" cx="57.84" cy="14" r="4"/>
      </g>
      <g>
        <path class="cls-2" d="M60.01,0h-.32c-4.68.05-9.35,1.72-13.06,5-2.76,2.36-5.64,7.23-9.61,3.85-3.1-3.19-6.81-6.79-11.24-7.95C20.13-.87,13.81,0,8.85,3.29-1.42,9.9-2.85,24.54,5.07,33.44c1.68,1.94,2.17,2.18,5.48,5.58,6.81,6.81,19.15,19.16,20.62,20.62,4.2,4.35,11.3,4.95,16.06,1.12,7.02-6.67,20.85-20.66,27.74-27.69C86.18,20.18,76.73.02,60.01,0ZM68.33,28.49l-6.49,6.49v-14.97h-8v22.97l-4,4v-18.97h-8v26.76c-1.24.72-2.76.72-4,0v-22.76h-8v14.97l-4-4v-18.97h-8v10.97l-6.23-6.23c-4.47-4.47-5.02-11.71-.91-16.51,2.47-2.89,6.03-4.41,9.81-4.21,4.68.19,7.7,3.22,10.85,6.52,4.69,4.69,12.29,4.69,16.97,0,3.32-3.53,6.5-6.66,11.51-6.54,3.21,0,6.22,1.25,8.49,3.51,4.68,4.68,4.68,12.29,0,16.97Z"/>
        <circle class="cls-2" cx="33.84" cy="26" r="4"/>
        <circle class="cls-2" cx="57.84" cy="14" r="4"/>
      </g>
    </g>
  </g>
</svg>