<?xml version="1.0" encoding="UTF-8"?>
<svg id="_レイヤー_2" data-name="レイヤー 2" xmlns="http://www.w3.org/2000/svg" xmlns:xlink="http://www.w3.org/1999/xlink" viewBox="0 0 128 90.53">
  <defs>
    <style>
      .cls-1 {
        fill: url(#_名称未設定グラデーション_302-3);
      }

      .cls-2 {
        fill: #231815;
      }

      .cls-3 {
        fill: url(#_名称未設定グラデーション_302);
      }

      .cls-4 {
        fill: url(#_名称未設定グラデーション_302-2);
      }

      .cls-5 {
        fill: url(#_名称未設定グラデーション_302-4);
      }
    </style>
    <linearGradient id="_名称未設定グラデーション_302" data-name="名称未設定グラデーション 302" x1="12.91" y1="112.52" x2="115.84" y2="53.09" gradientUnits="userSpaceOnUse">
      <stop offset="0" stop-color="#e4577c"/>
      <stop offset="1" stop-color="#babcbe"/>
    </linearGradient>
    <linearGradient id="_名称未設定グラデーション_302-2" data-name="名称未設定グラデーション 302" x1="34.08" y1="42.57" x2="98.59" y2="5.32" xlink:href="#_名称未設定グラデーション_302"/>
    <linearGradient id="_名称未設定グラデーション_302-3" data-name="名称未設定グラデーション 302" x1="34.08" y1="42.57" x2="98.59" y2="5.32" xlink:href="#_名称未設定グラデーション_302"/>
    <linearGradient id="_名称未設定グラデーション_302-4" data-name="名称未設定グラデーション 302" x1="34.08" y1="42.57" x2="98.59" y2="5.32" xlink:href="#_名称未設定グラデーション_302"/>
  </defs>
  <g id="_レイヤー_1-2" data-name="レイヤー 1">
    <g>
      <path class="cls-3" d="M11.11,87.14h-6.05l-1.22,3.02H0l6.46-16.01h3.38l6.31,16.01h-3.84l-1.2-3.02ZM10.1,84.31l-1.97-5.38-1.99,5.38h3.96Z"/>
      <path class="cls-3" d="M23.57,77.28v12.89h-3.7v-12.89h-3.48v-3.12h10.66v3.12h-3.48Z"/>
      <path class="cls-3" d="M34.61,77.28v12.89h-3.7v-12.89h-3.48v-3.12h10.66v3.12h-3.48Z"/>
      <path class="cls-3" d="M49.44,87.14h-6.05l-1.22,3.02h-3.84l6.46-16.01h3.38l6.31,16.01h-3.84l-1.2-3.02ZM48.44,84.31l-1.97-5.38-1.99,5.38h3.96Z"/>
      <path class="cls-3" d="M67.85,89.66c-1.42.72-2.57.86-3.53.86-2.95,0-4.94-1.01-6.29-2.33-1.44-1.39-2.5-3.5-2.5-6.07s1.06-4.63,2.5-6.02c1.42-1.37,3.48-2.3,5.98-2.3,1.06,0,2.28.22,3.84.89v4.27c-.82-.86-2.04-1.7-3.74-1.7-1.34,0-2.42.43-3.26,1.25-.89.86-1.51,2.16-1.51,3.7,0,1.66.67,2.83,1.39,3.53.34.34,1.49,1.34,3.46,1.34.96,0,2.26-.26,3.67-1.66v4.25Z"/>
      <path class="cls-3" d="M74.5,80.26h6.38v-6.1h3.7v16.01h-3.7v-6.79h-6.38v6.79h-3.7v-16.01h3.7v6.1Z"/>
      <path class="cls-3" d="M97.49,87.14h-6.05l-1.22,3.02h-3.84l6.46-16.01h3.38l6.31,16.01h-3.84l-1.2-3.02ZM96.49,84.31l-1.97-5.38-1.99,5.38h3.96Z"/>
      <path class="cls-3" d="M109.95,74.16c2.04,0,3.31.67,4.08,1.39.67.65,1.39,1.8,1.39,3.58,0,1.01-.22,2.26-1.25,3.26-.55.53-1.34,1.01-2.23,1.22l4.92,6.55h-4.51l-4.32-6.31v6.31h-3.7v-16.01h5.62ZM108.03,81.43h.84c.67,0,1.58-.07,2.21-.7.26-.26.6-.77.6-1.56,0-.91-.43-1.39-.74-1.63-.6-.46-1.56-.5-2.04-.5h-.86v4.39Z"/>
      <path class="cls-3" d="M124.52,77.28v12.89h-3.7v-12.89h-3.48v-3.12h10.66v3.12h-3.48Z"/>
    </g>
    <g>
      <g>
        <path class="cls-2" d="M84.22,0h-.32c-4.68.05-9.35,1.72-13.06,5-2.76,2.36-5.64,7.23-9.61,3.85-3.1-3.19-6.81-6.79-11.24-7.95C44.34-.87,38.01,0,33.06,3.29c-10.27,6.61-11.7,21.25-3.78,30.15,1.68,1.94,2.17,2.18,5.48,5.58,6.81,6.81,19.15,19.16,20.62,20.62,4.2,4.35,11.3,4.95,16.06,1.12,7.02-6.67,20.85-20.66,27.74-27.69C110.39,20.18,100.93.02,84.22,0ZM92.53,28.49l-6.49,6.49v-14.97h-8v22.97l-4,4v-18.97h-8v26.76c-1.24.72-2.76.72-4,0v-22.76h-8v14.97l-4-4v-18.97h-8v10.97l-6.23-6.23c-4.47-4.47-5.02-11.71-.91-16.51,2.47-2.89,6.03-4.41,9.81-4.21,4.68.19,7.7,3.22,10.85,6.52,4.69,4.69,12.29,4.69,16.97,0,3.32-3.53,6.5-6.66,11.51-6.54,3.21,0,6.22,1.25,8.49,3.51,4.68,4.68,4.68,12.29,0,16.97Z"/>
        <circle class="cls-2" cx="58.05" cy="26" r="4"/>
        <circle class="cls-2" cx="82.05" cy="14" r="4"/>
      </g>
      <g>
        <path class="cls-4" d="M84.22,0h-.32c-4.68.05-9.35,1.72-13.06,5-2.76,2.36-5.64,7.23-9.61,3.85-3.1-3.19-6.81-6.79-11.24-7.95C44.34-.87,38.01,0,33.06,3.29c-10.27,6.61-11.7,21.25-3.78,30.15,1.68,1.94,2.17,2.18,5.48,5.58,6.81,6.81,19.15,19.16,20.62,20.62,4.2,4.35,11.3,4.95,16.06,1.12,7.02-6.67,20.85-20.66,27.74-27.69C110.39,20.18,100.93.02,84.22,0ZM92.53,28.49l-6.49,6.49v-14.97h-8v22.97l-4,4v-18.97h-8v26.76c-1.24.72-2.76.72-4,0v-22.76h-8v14.97l-4-4v-18.97h-8v10.97l-6.23-6.23c-4.47-4.47-5.02-11.71-.91-16.51,2.47-2.89,6.03-4.41,9.81-4.21,4.68.19,7.7,3.22,10.85,6.52,4.69,4.69,12.29,4.69,16.97,0,3.32-3.53,6.5-6.66,11.51-6.54,3.21,0,6.22,1.25,8.49,3.51,4.68,4.68,4.68,12.29,0,16.97Z"/>
        <circle class="cls-1" cx="58.05" cy="26" r="4"/>
        <circle class="cls-5" cx="82.05" cy="14" r="4"/>
      </g>
    </g>
  </g>
</svg>