<?xml version="1.0" encoding="UTF-8"?>
<svg id="_レイヤー_2" data-name="レイヤー 2" xmlns="http://www.w3.org/2000/svg" viewBox="0 0 504.04 120">
  <defs>
    <style>
      .cls-1 {
        fill: none;
      }

      .cls-2 {
        fill: #cc3750;
      }
    </style>
  </defs>
  <g id="_レイヤー_1-2" data-name="レイヤー 1">
    <g>
      <g>
        <circle class="cls-2" cx="92" cy="28" r="12"/>
        <path class="cls-2" d="M104,60v32c0,6.63-5.37,12-12,12-4.34,0-8.14-2.3-10.25-5.74-6.41,3.65-13.84,5.74-21.75,5.74-24.3,0-44-19.7-44-44S35.7,16,60,16c6.63,0,12,5.37,12,12s-5.37,12-12,12c-11.05,0-20,8.95-20,20s8.95,20,20,20,20-8.95,20-20c0-6.63,5.37-12,12-12,3.32,0,6.32,1.34,8.49,3.51,2.17,2.17,3.51,5.17,3.51,8.49Z"/>
      </g>
      <g>
        <path class="cls-2" d="M144,75.7c0-12.48,10.82-22.67,23.3-22.67,13.52,0,23.3,9.15,23.3,22.67v21.63h-11.44v-3.74c-2.7,2.91-7.49,4.78-12.9,4.78-13.1,0-22.26-9.15-22.26-22.67ZM178.95,75.7c0-6.86-4.78-11.86-11.65-11.86s-11.65,4.99-11.65,11.86,4.99,11.86,11.65,11.86,11.65-5.2,11.65-11.86Z"/>
        <path class="cls-2" d="M207.23,64.89h-5.82v-10.82h5.82V21.62h11.65v32.45h5.82v10.82h-5.82v32.45h-11.65v-32.45Z"/>
        <path class="cls-2" d="M232.61,75.7c0-12.48,10.82-22.67,23.3-22.67,13.52,0,23.3,9.15,23.3,22.67v21.63h-11.44v-3.74c-2.7,2.91-7.49,4.78-12.9,4.78-13.1,0-22.26-9.15-22.26-22.67ZM267.55,75.7c0-6.86-4.78-11.86-11.65-11.86s-11.65,4.99-11.65,11.86,4.99,11.86,11.65,11.86,11.65-5.2,11.65-11.86Z"/>
        <path class="cls-2" d="M288.35,75.7c0-12.48,10.82-22.67,23.3-22.67,6.45,0,11.65,1.87,16.22,6.45l-7.7,7.7c-2.29-2.08-5.2-3.33-8.53-3.33-6.66,0-11.65,4.99-11.65,11.86s4.99,11.86,11.65,11.86c3.12,0,6.24-1.46,8.32-3.54l7.7,7.49c-4.16,4.37-9.98,6.86-16.02,6.86-13.52,0-23.3-9.15-23.3-22.67Z"/>
        <path class="cls-2" d="M334.53,75.7c0-12.48,10.82-22.67,23.3-22.67,6.45,0,11.65,1.87,16.22,6.45l-7.7,7.7c-2.29-2.08-5.2-3.33-8.53-3.33-6.66,0-11.65,4.99-11.65,11.86s4.99,11.86,11.65,11.86c3.12,0,6.24-1.46,8.32-3.54l7.7,7.49c-4.16,4.37-9.98,6.86-16.02,6.86-13.52,0-23.3-9.15-23.3-22.67Z"/>
        <path class="cls-2" d="M385.7,21.62h11.65v36.19c2.5-2.91,7.28-4.78,12.69-4.78,13.1,0,22.26,9.15,22.26,22.67v21.63h-11.65v-21.63c0-6.86-4.78-11.86-11.65-11.86s-11.65,4.99-11.65,11.86v21.63h-11.65V21.62Z"/>
        <path class="cls-2" d="M441.44,75.7c0-12.48,10.82-22.67,23.3-22.67,13.52,0,23.3,9.15,23.3,22.67v21.63h-11.44v-3.74c-2.7,2.91-7.49,4.78-12.9,4.78-13.1,0-22.26-9.15-22.26-22.67ZM476.39,75.7c0-6.86-4.78-11.86-11.65-11.86s-11.65,4.99-11.65,11.86,4.99,11.86,11.65,11.86,11.65-5.2,11.65-11.86Z"/>
      </g>
      <rect class="cls-1" width="504.04" height="120"/>
    </g>
  </g>
</svg>