<?xml version="1.0" encoding="UTF-8"?>
<svg id="_レイヤー_2" data-name="レイヤー 2" xmlns="http://www.w3.org/2000/svg" viewBox="0 0 120 120">
  <defs>
    <style>
      .cls-1 {
        fill: none;
      }

      .cls-2 {
        fill: #c1374d;
      }
    </style>
  </defs>
  <g id="_レイヤー_1-2" data-name="レイヤー 1">
    <g id="_レイヤー_2-2" data-name=" レイヤー 2">
      <g id="_レイヤー_1-2" data-name=" レイヤー 1-2">
        <g>
          <circle class="cls-2" cx="92" cy="28" r="12"/>
          <path class="cls-2" d="M104,60v32c0,6.63-5.37,12-12,12-4.34,0-8.14-2.3-10.25-5.74-6.41,3.65-13.84,5.74-21.75,5.74-24.3,0-44-19.7-44-44S35.7,16,60,16c6.63,0,12,5.37,12,12s-5.37,12-12,12c-11.05,0-20,8.95-20,20s8.95,20,20,20,20-8.95,20-20c0-6.63,5.37-12,12-12,3.32,0,6.32,1.34,8.49,3.51,2.17,2.17,3.51,5.17,3.51,8.49Z"/>
          <rect class="cls-1" width="120" height="120"/>
        </g>
      </g>
    </g>
  </g>
</svg>